<svg width="24" height="24" viewBox="0 0 24 24" fill="none" xmlns="http://www.w3.org/2000/svg">
<path fill-rule="evenodd" clip-rule="evenodd" d="M4.21952 4.44006C4.48804 4.17163 4.85217 4.02083 5.23186 4.02083C5.61154 4.02083 5.97567 4.17163 6.24419 4.44006L12.3912 10.5871L18.5382 4.44006C18.6703 4.3033 18.8283 4.19422 19.003 4.11918C19.1777 4.04414 19.3656 4.00464 19.5557 4.00298C19.7458 4.00133 19.9344 4.03756 20.1103 4.10956C20.2863 4.18155 20.4462 4.28787 20.5806 4.42231C20.7151 4.55676 20.8214 4.71663 20.8934 4.8926C20.9654 5.06857 21.0016 5.25712 20.9999 5.44724C20.9983 5.63736 20.9588 5.82525 20.8838 5.99995C20.8087 6.17464 20.6996 6.33264 20.5629 6.46472L14.4159 12.6117L20.5629 18.7587C20.8237 19.0288 20.968 19.3905 20.9648 19.7659C20.9615 20.1414 20.8109 20.5005 20.5454 20.766C20.2799 21.0314 19.9208 21.182 19.5454 21.1853C19.17 21.1886 18.8083 21.0442 18.5382 20.7834L12.3912 14.6364L6.24419 20.7834C5.97413 21.0442 5.61244 21.1886 5.23701 21.1853C4.86158 21.182 4.50245 21.0314 4.23697 20.766C3.97149 20.5005 3.8209 20.1414 3.81764 19.7659C3.81437 19.3905 3.9587 19.0288 4.21952 18.7587L10.3665 12.6117L4.21952 6.46472C3.95109 6.19621 3.80029 5.83207 3.80029 5.45239C3.80029 5.07271 3.95109 4.70858 4.21952 4.44006Z" fill="#9A9A9A"/>
</svg>
