<svg width="33" height="33" viewBox="0 0 33 33" fill="none" xmlns="http://www.w3.org/2000/svg">
<g clip-path="url(#clip0_817_4879)" filter="url(#filter0_d_817_4879)">
<path d="M17.0625 23.6114C23.1024 23.6114 28 19.2583 28 13.8892C28 8.52012 23.1024 4.16699 17.0625 4.16699C11.0226 4.16699 6.125 8.52012 6.125 13.8892C6.125 15.8021 6.74722 17.5861 7.82031 19.0906L6.125 23.6114L11.8915 22.4581C13.5076 23.2235 15.2744 23.6175 17.0625 23.6114Z" fill="#785846"/>
<path d="M12.2014 13.8892H12.2135M17.0625 13.8892H17.0747M21.9236 13.8892H21.9358M28 13.8892C28 19.2583 23.1024 23.6114 17.0625 23.6114C15.2744 23.6175 13.5076 23.2235 11.8915 22.4581L6.125 23.6114L7.82031 19.0906C6.74722 17.5861 6.125 15.8021 6.125 13.8892C6.125 8.52012 11.0226 4.16699 17.0625 4.16699C23.1024 4.16699 28 8.52012 28 13.8892Z" stroke="white" stroke-width="2.33333" stroke-linecap="round" stroke-linejoin="round"/>
</g>
<defs>
<filter id="filter0_d_817_4879" x="0" y="0" width="33" height="33" filterUnits="userSpaceOnUse" color-interpolation-filters="sRGB">
<feFlood flood-opacity="0" result="BackgroundImageFix"/>
<feColorMatrix in="SourceAlpha" type="matrix" values="0 0 0 0 0 0 0 0 0 0 0 0 0 0 0 0 0 0 127 0" result="hardAlpha"/>
<feOffset dy="4"/>
<feGaussianBlur stdDeviation="2"/>
<feComposite in2="hardAlpha" operator="out"/>
<feColorMatrix type="matrix" values="0 0 0 0 0 0 0 0 0 0 0 0 0 0 0 0 0 0 0.25 0"/>
<feBlend mode="normal" in2="BackgroundImageFix" result="effect1_dropShadow_817_4879"/>
<feBlend mode="normal" in="SourceGraphic" in2="effect1_dropShadow_817_4879" result="shape"/>
</filter>
<clipPath id="clip0_817_4879">
<rect width="25" height="25" fill="white" transform="translate(4)"/>
</clipPath>
</defs>
</svg>
