<svg width="20" height="20" viewBox="0 0 20 20" fill="none" xmlns="http://www.w3.org/2000/svg">
<path fill-rule="evenodd" clip-rule="evenodd" d="M3.70698 2.29341C3.51838 2.11125 3.26578 2.01045 3.00358 2.01273C2.74138 2.01501 2.49057 2.12018 2.30516 2.30559C2.11975 2.491 2.01458 2.74181 2.01231 3.00401C2.01003 3.2662 2.11082 3.5188 2.29298 3.70741L16.293 17.7074C16.4816 17.8896 16.7342 17.9904 16.9964 17.9881C17.2586 17.9858 17.5094 17.8806 17.6948 17.6952C17.8802 17.5098 17.9854 17.259 17.9877 16.9968C17.9899 16.7346 17.8891 16.482 17.707 16.2934L16.234 14.8204C17.7915 13.5785 18.9433 11.9003 19.542 10.0004C18.268 5.94341 14.478 3.00041 9.99998 3.00041C8.43241 2.99828 6.88648 3.36626 5.48798 4.07441L3.70698 2.29341ZM7.96798 6.55341L9.48198 8.06841C9.82107 7.97836 10.1779 7.97895 10.5167 8.07014C10.8554 8.16132 11.1643 8.33989 11.4124 8.58797C11.6605 8.83606 11.8391 9.14495 11.9303 9.48374C12.0214 9.82252 12.022 10.1793 11.932 10.5184L13.446 12.0324C13.897 11.2684 14.0812 10.3762 13.9696 9.49608C13.8581 8.61596 13.4571 7.7979 12.8298 7.17059C12.2025 6.54327 11.3844 6.1423 10.5043 6.03076C9.62419 5.91921 8.73196 6.10242 7.96798 6.55341Z" fill="#9A9A9A"/>
<path d="M12.454 16.6971L9.75001 13.9921C8.77769 13.9312 7.86103 13.5175 7.17206 12.8288C6.4831 12.14 6.06918 11.2234 6.00801 10.2511L2.33501 6.57812C1.49022 7.58414 0.852357 8.74704 0.458008 10.0001C1.73201 14.0571 5.52301 17.0001 10 17.0001C10.847 17.0001 11.669 16.8951 12.454 16.6971Z" fill="#9A9A9A"/>
</svg>
