<svg width="375" height="252" viewBox="0 0 375 252" fill="none" xmlns="http://www.w3.org/2000/svg">
<path d="M375 0H0V217.358C31 238.727 131.008 254.893 219.5 213.659C313.5 169.859 343 195.99 375 217.358V0Z" fill="url(#paint0_linear_867_9101)"/>
<path d="M375 0H0V217.358C13.5 241.435 118.5 281.496 186 217.358C252.16 154.494 333.5 170.927 375 217.358V0Z" fill="url(#paint1_linear_867_9101)"/>
<path d="M375 0H0V217.358C119.5 248.379 137 166.654 221.5 195.498C273.852 213.369 306 234.491 375 217.358V0Z" fill="url(#paint2_linear_867_9101)"/>
<g filter="url(#filter0_i_867_9101)">
<path d="M186.467 164.633C188.223 165.749 190.551 165.23 191.667 163.474C192.782 161.718 192.263 159.39 190.507 158.274L186.467 164.633ZM155.101 129.12L158.686 127.964L155.101 129.12ZM170.832 100.401L170.466 96.6516L170.832 100.401ZM187.284 109.57L184.094 111.573C184.745 112.609 185.857 113.264 187.078 113.331C188.299 113.398 189.476 112.868 190.236 111.91L187.284 109.57ZM206.777 100.401L207.753 96.7625L206.777 100.401ZM220.67 125.361L217.136 124.057L217.136 124.057L220.67 125.361ZM179.703 130.533C178.407 128.906 176.037 128.638 174.41 129.934C172.783 131.23 172.515 133.6 173.811 135.227L179.703 130.533ZM188.487 161.454C190.507 158.274 190.508 158.275 190.508 158.275C190.508 158.275 190.508 158.275 190.508 158.275C190.508 158.274 190.507 158.274 190.506 158.273C190.503 158.272 190.499 158.269 190.493 158.265C190.482 158.258 190.463 158.246 190.438 158.23C190.388 158.198 190.312 158.149 190.211 158.083C190.008 157.952 189.706 157.755 189.318 157.498C188.542 156.984 187.422 156.229 186.061 155.279C183.335 153.377 179.664 150.703 175.864 147.61C172.054 144.509 168.179 141.037 165.012 137.543C161.786 133.984 159.566 130.693 158.686 127.964L151.516 130.277C152.892 134.541 155.973 138.788 159.43 142.602C162.946 146.482 167.136 150.22 171.108 153.453C175.091 156.695 178.92 159.482 181.749 161.457C183.166 162.446 184.337 163.234 185.157 163.778C185.567 164.05 185.89 164.261 186.113 164.405C186.224 164.477 186.311 164.533 186.37 164.571C186.4 164.59 186.423 164.605 186.439 164.615C186.447 164.62 186.454 164.624 186.458 164.627C186.461 164.629 186.463 164.63 186.464 164.631C186.465 164.631 186.466 164.632 186.466 164.632C186.467 164.633 186.467 164.633 188.487 161.454ZM158.686 127.964C156.811 122.151 157.967 116.348 160.712 111.846C163.522 107.238 167.658 104.495 171.198 104.15L170.466 96.6516C163.93 97.2898 157.945 101.914 154.28 107.924C150.551 114.038 148.88 122.104 151.516 130.277L158.686 127.964ZM171.198 104.15C174.825 103.795 177.956 105.42 180.403 107.491C181.605 108.508 182.553 109.563 183.198 110.363C183.519 110.761 183.758 111.087 183.91 111.303C183.986 111.411 184.04 111.491 184.071 111.538C184.086 111.561 184.096 111.576 184.1 111.582C184.102 111.586 184.103 111.586 184.102 111.585C184.101 111.584 184.1 111.583 184.099 111.581C184.098 111.58 184.098 111.579 184.097 111.577C184.097 111.577 184.096 111.576 184.096 111.575C184.095 111.574 184.094 111.573 187.284 109.57C190.474 107.567 190.473 107.565 190.473 107.564C190.472 107.564 190.471 107.562 190.471 107.561C190.47 107.56 190.468 107.557 190.467 107.555C190.464 107.551 190.461 107.546 190.457 107.54C190.45 107.529 190.441 107.515 190.431 107.499C190.41 107.467 190.383 107.425 190.349 107.374C190.282 107.273 190.189 107.135 190.071 106.968C189.835 106.633 189.498 106.173 189.063 105.634C188.198 104.562 186.922 103.139 185.27 101.741C182.01 98.9815 176.915 96.0218 170.466 96.6516L171.198 104.15ZM187.284 109.57C190.236 111.91 190.235 111.911 190.235 111.912C190.234 111.912 190.234 111.913 190.233 111.913C190.233 111.914 190.232 111.915 190.232 111.915C190.231 111.916 190.231 111.916 190.231 111.916C190.232 111.915 190.234 111.912 190.239 111.906C190.249 111.894 190.268 111.871 190.295 111.838C190.348 111.773 190.435 111.67 190.554 111.533C190.79 111.26 191.15 110.86 191.615 110.381C192.552 109.416 193.881 108.171 195.468 107.016C198.795 104.594 202.442 103.138 205.8 104.039L207.753 96.7625C201.032 94.9591 194.933 98.0871 191.034 100.926C189.007 102.401 187.353 103.955 186.21 105.133C185.635 105.725 185.18 106.231 184.863 106.597C184.704 106.78 184.579 106.928 184.49 107.036C184.446 107.09 184.41 107.133 184.384 107.166C184.37 107.182 184.36 107.196 184.351 107.206C184.347 107.212 184.343 107.216 184.34 107.22C184.338 107.222 184.337 107.224 184.336 107.226C184.335 107.226 184.334 107.227 184.334 107.228C184.333 107.229 184.332 107.23 187.284 109.57ZM205.8 104.039C215.832 106.731 219.591 117.406 217.136 124.057L224.204 126.665C228.077 116.171 222.384 100.688 207.753 96.7625L205.8 104.039ZM217.136 124.057C215.383 128.807 211.917 132.684 207.807 135.393C203.667 138.122 199.138 139.49 195.555 139.49V147.024C200.849 147.024 206.796 145.083 211.953 141.683C217.141 138.264 221.795 133.194 224.204 126.665L217.136 124.057ZM195.555 139.49C191.492 139.49 187.6 137.458 184.499 135.079C182.989 133.921 181.765 132.757 180.923 131.885C180.503 131.451 180.184 131.094 179.976 130.855C179.872 130.735 179.796 130.646 179.75 130.59C179.727 130.562 179.712 130.543 179.704 130.534C179.7 130.529 179.698 130.526 179.698 130.526C179.698 130.526 179.698 130.527 179.699 130.528C179.7 130.528 179.7 130.529 179.701 130.53C179.701 130.53 179.702 130.531 179.702 130.531C179.703 130.532 179.703 130.533 176.757 132.88C173.811 135.227 173.811 135.228 173.812 135.229C173.813 135.229 173.813 135.23 173.814 135.231C173.815 135.233 173.817 135.234 173.818 135.236C173.821 135.24 173.824 135.244 173.828 135.249C173.836 135.259 173.846 135.271 173.858 135.286C173.882 135.316 173.914 135.355 173.955 135.403C174.035 135.5 174.147 135.633 174.29 135.797C174.575 136.125 174.983 136.579 175.504 137.118C176.54 138.191 178.042 139.621 179.914 141.058C183.579 143.868 189.087 147.024 195.555 147.024V139.49Z" fill="#FAF8F4"/>
<path d="M204.88 120.208C204.88 121.103 204.467 122.598 203.672 123.86C203.078 124.804 202.631 125.09 202.473 125.175C202.315 125.09 201.869 124.804 201.275 123.86C200.48 122.598 200.067 121.103 200.067 120.208C200.067 118.755 201.207 117.69 202.473 117.69C203.74 117.69 204.88 118.755 204.88 120.208Z" fill="#FAF8F4" stroke="#FAF8F4" stroke-width="7.21861"/>
<mask id="path-6-inside-1_867_9101" fill="white">
<rect x="167.884" y="116.788" width="13.2341" height="6.91784" rx="2.4062"/>
</mask>
<rect x="167.884" y="116.788" width="13.2341" height="6.91784" rx="2.4062" fill="#FAF8F4" stroke="#FAF8F4" stroke-width="6.91784" mask="url(#path-6-inside-1_867_9101)"/>
</g>
<defs>
<filter id="filter0_i_867_9101" x="150.232" y="96.2305" width="75.153" height="69.8047" filterUnits="userSpaceOnUse" color-interpolation-filters="sRGB">
<feFlood flood-opacity="0" result="BackgroundImageFix"/>
<feBlend mode="normal" in="SourceGraphic" in2="BackgroundImageFix" result="shape"/>
<feColorMatrix in="SourceAlpha" type="matrix" values="0 0 0 0 0 0 0 0 0 0 0 0 0 0 0 0 0 0 127 0" result="hardAlpha"/>
<feOffset dy="0.814447"/>
<feGaussianBlur stdDeviation="0.407224"/>
<feComposite in2="hardAlpha" operator="arithmetic" k2="-1" k3="1"/>
<feColorMatrix type="matrix" values="0 0 0 0 0 0 0 0 0 0 0 0 0 0 0 0 0 0 0.25 0"/>
<feBlend mode="normal" in2="shape" result="effect1_innerShadow_867_9101"/>
</filter>
<linearGradient id="paint0_linear_867_9101" x1="187.5" y1="7.98453e-06" x2="-110.806" y2="182.696" gradientUnits="userSpaceOnUse">
<stop stop-color="#E190A0" stop-opacity="0.74"/>
<stop offset="1" stop-color="#C55269" stop-opacity="0.65"/>
</linearGradient>
<linearGradient id="paint1_linear_867_9101" x1="-5.56232e-07" y1="99.8773" x2="381.07" y2="109.025" gradientUnits="userSpaceOnUse">
<stop stop-color="#EDC199" stop-opacity="0.39"/>
<stop offset="1" stop-color="#5A463B" stop-opacity="0.51"/>
</linearGradient>
<linearGradient id="paint2_linear_867_9101" x1="187.5" y1="0" x2="187.5" y2="235.331" gradientUnits="userSpaceOnUse">
<stop stop-color="#C55269" stop-opacity="0.47"/>
<stop offset="1" stop-color="#926E4D" stop-opacity="0.27"/>
</linearGradient>
</defs>
</svg>
