<svg width="25" height="25" viewBox="0 0 25 25" fill="none" xmlns="http://www.w3.org/2000/svg">
<g clip-path="url(#clip0_817_3861)">
<path d="M24.9913 12.9785C24.9913 13.752 24.3403 14.3578 23.6024 14.3578H22.2135L22.2439 21.2371C22.2439 21.3574 22.2352 21.4691 22.2222 21.5852V22.2812C22.2222 23.2309 21.4453 24 20.4861 24H19.7917C19.7439 24 19.6962 23.9613 19.6484 23.9957C19.5877 23.9613 19.5269 24 19.4661 24H17.0139C16.0547 24 15.2778 23.2309 15.2778 22.2812V18.5C15.2778 17.7395 14.6571 17.125 13.8889 17.125H11.1111C10.3429 17.125 9.72222 17.7395 9.72222 18.5V22.2812C9.72222 23.2309 8.94531 24 7.98611 24H5.5599C5.49479 24 5.42969 23.9957 5.36458 23.9914C5.3125 23.9957 5.26042 24 5.20833 24H4.51389C3.55512 24 2.77778 23.2309 2.77778 22.2812V17.4688C2.77778 17.4301 2.77908 17.3871 2.78168 17.3484V14.3578H1.39106C0.608507 14.3578 0 13.752 0 12.9785C0 12.5918 0.130382 12.248 0.434462 11.9473L11.5625 2.34444C11.8663 2.04305 12.2135 2 12.5174 2C12.8212 2 13.1684 2.08611 13.4332 2.30138L24.5139 11.9473C24.8611 12.248 25.0391 12.5918 24.9913 12.9785Z" fill="#785846"/>
</g>
<defs>
<clipPath id="clip0_817_3861">
<rect width="25" height="22" fill="white" transform="translate(0 2)"/>
</clipPath>
</defs>
</svg>
