<svg width="25" height="25" viewBox="0 0 25 25" fill="none" xmlns="http://www.w3.org/2000/svg">
<g clip-path="url(#clip0_817_2541)">
<path d="M24.4951 12.9173L24.4913 12.9478V12.9785C24.4913 13.4631 24.077 13.8578 23.6024 13.8578H22.2135H21.7113L21.7135 14.36L21.7439 21.2371C21.7439 21.2374 21.7439 21.2377 21.7439 21.238C21.7439 21.3332 21.7371 21.4249 21.7253 21.5294L21.7222 21.5572V21.5852V22.2812C21.7222 22.95 21.1739 23.5 20.4861 23.5H19.842C19.8381 23.4991 19.834 23.4981 19.8298 23.4972C19.7946 23.4892 19.727 23.4765 19.6435 23.4835C19.5687 23.4775 19.5073 23.4861 19.4702 23.4926C19.4554 23.4952 19.442 23.498 19.4328 23.5H17.0139C16.3261 23.5 15.7778 22.95 15.7778 22.2812V18.5C15.7778 17.4586 14.9285 16.625 13.8889 16.625H11.1111C10.0715 16.625 9.22222 17.4586 9.22222 18.5V22.2812C9.22222 22.95 8.67392 23.5 7.98611 23.5H5.5599C5.51403 23.5 5.46539 23.497 5.39751 23.4925L5.36047 23.49L5.32347 23.4931C5.2679 23.4977 5.23637 23.5 5.20833 23.5H4.51389C3.82643 23.5 3.27778 22.9499 3.27778 22.2812V17.4688C3.27778 17.4401 3.27878 17.4084 3.28055 17.382L3.28168 17.3653V17.3484V14.3578V13.8578H2.78168H1.39106C0.881234 13.8578 0.5 13.4724 0.5 12.9785C0.5 12.7259 0.576979 12.5145 0.775042 12.3138L11.8892 2.72298L11.9023 2.71164L11.9146 2.69941C12.0794 2.53601 12.2634 2.5 12.5174 2.5C12.7364 2.5 12.9591 2.56326 13.1121 2.68482L24.1856 12.3244L24.1865 12.3252C24.4554 12.5581 24.5157 12.7499 24.4951 12.9173ZM19.4121 23.5045C19.4112 23.5047 19.4114 23.5046 19.4128 23.5044L19.4121 23.5045Z" stroke="#D7D7D7"/>
</g>
<defs>
<clipPath id="clip0_817_2541">
<rect width="25" height="22" fill="white" transform="translate(0 2)"/>
</clipPath>
</defs>
</svg>
