<svg width="25" height="25" viewBox="0 0 25 25" fill="none" xmlns="http://www.w3.org/2000/svg">
<path fill-rule="evenodd" clip-rule="evenodd" d="M3.5 12H7.5375C7.64875 10.0675 8 7.5 9.5 4C7 5 5.60005 6.61211 5 7.5C4.39995 8.38789 3.5 10.5 3.5 12ZM12.5 2.5C9.84784 2.5 7.3043 3.55357 5.42893 5.42893C3.55357 7.3043 2.5 9.84784 2.5 12.5C2.5 15.1522 3.55357 17.6957 5.42893 19.5711C7.3043 21.4464 9.84784 22.5 12.5 22.5C15.1522 22.5 17.6957 21.4464 19.5711 19.5711C21.4464 17.6957 22.5 15.1522 22.5 12.5C22.5 9.84784 21.4464 7.3043 19.5711 5.42893C17.6957 3.55357 15.1522 2.5 12.5 2.5ZM12.5 3.5C12.405 3.5 11.5085 3.5 11 4C10.7025 4.2925 10.34 4.73018 10.04 5.42893C9.5 6.5 8.69875 10.2325 8.5825 12H16.4175C16.3012 10.2325 16 7.8556 14.96 5.42893C14.66 4.72893 14.2987 4.2925 14.0025 4C13.5 3.5 12.595 3.5 12.5 3.5ZM17.5 12C17.5 11.5 17.5 8.5 15.5 4C17.5 4.5 19.4 6.61211 20 7.5C20.6 8.38789 21.5 10.5 21.5 12H17.5ZM16.4175 13H8.5825C8.5 16 9.5 18.5 10 19.5711C10.3 20.2711 10.6643 20.6685 11 21C11.5064 21.5 12.405 21.5 12.5 21.5C12.595 21.5 13.5 21.5 14 21C14.4968 20.5032 14.6613 20.2698 14.96 19.5711C16 17.5 16.3012 14.7675 16.4175 13ZM15.5 21C17 17.5 17.3888 14.9325 17.5 13H21.5C21.3213 14.0566 21.5 15.5 20 17.5C19.4 18.3879 17.5 20.5 15.5 21ZM9.5 21C7.5 16.5 7.6475 14.9325 7.5375 13H3.5C3.5 15 4.39995 16.6121 5 17.5C6.19949 19.6725 8.58626 20.4401 9.5 21Z" fill="#D7D7D7"/>
</svg>
