<svg width="25" height="25" viewBox="0 0 25 25" fill="none" xmlns="http://www.w3.org/2000/svg">
<circle cx="12.5" cy="12.5" r="10" fill="#785846"/>
<path d="M12.5 22C11.7828 22 11.0739 21.9189 10.3857 21.7618L9.95691 20.7969C9.68068 20.1754 9.44663 19.6122 9.24798 19.0981C9.35589 19.3624 9.45701 19.5897 9.54363 19.7755C9.87882 20.5543 10.2913 21.0029 10.6487 21.3558C11.0013 21.7039 11.4623 21.8561 11.8022 21.927C12.1519 21.9999 12.4403 22 12.5 22ZM12.5 22C13.5227 22 14.5285 21.8351 15.4816 21.52L14.6434 21.7295L15.0404 20.803C15.267 20.2744 15.4676 19.7678 15.6454 19.2821C15.5724 19.4518 15.4953 19.6186 15.4137 19.7817C15.2629 20.1335 15.1336 20.3972 14.9684 20.6414C14.8007 20.8894 14.6084 21.0987 14.3536 21.3536C14.0031 21.704 13.5399 21.8563 13.1999 21.927C12.8495 21.9999 12.5596 22 12.5 22ZM12.5 3C12.4402 3 12.1524 3.00014 11.803 3.07304C11.4631 3.14395 11.0027 3.29612 10.6495 3.64346C10.3161 3.97123 9.91526 4.45745 9.58645 5.21799C9.2855 5.82378 8.94247 7.0757 8.66394 8.34624C8.37953 9.64364 8.14411 11.0468 8.08358 11.9672L8.04853 12.5H8.09606L8.08269 12.9863C8.03565 14.6969 8.32734 16.2476 8.68508 17.4804C8.50862 16.8998 8.38701 16.3961 8.30124 15.944C8.13015 15.0421 8.09955 14.3428 8.06725 13.6044C8.05823 13.3983 8.04907 13.1891 8.03669 12.9716L8.00985 12.5H8.00954L8.03667 12.0287C8.14522 10.1431 8.48642 7.63431 9.95957 4.19696L10.3688 3.24211C11.0623 3.08244 11.7769 3 12.5 3ZM12.5 3C12.5596 3 12.8495 3.00012 13.2001 3.07295C13.5402 3.14358 14.003 3.2956 14.3544 3.64477C14.6879 3.97421 15.0899 4.46277 15.4196 5.23197C16.4916 7.73325 16.7985 10.1743 16.9164 11.9672L16.9515 12.5L16.9164 13.0328C16.8511 14.0259 16.7268 15.3501 16.4381 16.7044C16.7998 15.2352 16.9412 14.0077 17.0008 12.9713L17.028 12.5H17V12V11.9951C17 11.5279 17.0002 8.60653 15.0431 4.20307L14.6268 3.2663L15.4816 3.48002C14.5285 3.16491 13.5227 3 12.5 3ZM9.2237 21.4172C8.31444 21.0831 7.45759 20.6105 6.68514 20.0125C6.82212 20.1072 6.95877 20.1961 7.09378 20.2797C7.54452 20.5591 7.98283 20.7837 8.35729 20.9701C8.42499 21.0037 8.48972 21.0358 8.55153 21.0664C8.83496 21.2066 9.05703 21.3166 9.2237 21.4172ZM5.78249 5.78249C6.69912 4.86585 7.78379 4.15588 8.96408 3.68256C7.13544 4.48473 5.90485 5.59473 5.15231 6.47821C5.34992 6.2371 5.56012 6.00485 5.78249 5.78249ZM4.18439 7.90643C3.96593 8.32687 3.74498 8.82642 3.55498 9.34987C3.45766 9.61802 3.36648 9.89778 3.28727 10.1813C3.48716 9.3872 3.78885 8.6225 4.18439 7.90643ZM18.6046 5.22861C18.5438 5.17525 18.4817 5.12196 18.4186 5.0689C18.6967 5.29048 18.9636 5.52855 19.2175 5.78249C19.5033 6.06827 19.769 6.37039 20.0137 6.68665C19.6594 6.25128 19.1734 5.72732 18.6046 5.22861ZM21.445 9.34987C21.255 8.82642 21.0341 8.32688 20.8156 7.90643C21.2112 8.62251 21.5128 9.38721 21.7127 10.1814C21.6335 9.89779 21.5423 9.61802 21.445 9.34987ZM21.923 13.6857C21.9389 13.5164 21.9536 13.3597 21.973 13.2161C21.9592 13.3993 21.94 13.5816 21.9157 13.7629C21.9182 13.7369 21.9206 13.7112 21.923 13.6857ZM18.6046 19.7714C19.1734 19.2727 19.6594 18.7487 20.0137 18.3133C19.769 18.6296 19.5033 18.9317 19.2175 19.2175C18.9636 19.4715 18.6967 19.7095 18.4185 19.9311C18.4817 19.8781 18.5438 19.8248 18.6046 19.7714Z" fill="#785846" stroke="white"/>
</svg>
