<svg width="25" height="25" viewBox="0 0 25 25" fill="none" xmlns="http://www.w3.org/2000/svg">
<path fill-rule="evenodd" clip-rule="evenodd" d="M5.67605 2.01497C4.74464 2.14221 3.76683 2.84373 3.36378 3.67385C2.99023 4.44335 3.02059 3.70953 3.00362 12.3758C2.99332 17.6262 3.00492 20.2597 3.03939 20.5204C3.16519 21.4707 3.80512 22.1564 4.73352 22.3357C5.26391 22.4382 5.68349 22.3198 6.48871 21.8407C6.80276 21.6538 7.18347 21.4627 7.33474 21.4159C8.15621 21.1618 8.99691 21.2948 9.72392 21.7936C10.4251 22.2748 11.4083 22.5765 12.275 22.5765C13.1418 22.5765 14.125 22.2748 14.8262 21.7936C15.7907 21.1318 16.8709 21.1163 17.9037 21.7497C18.1225 21.8839 18.4521 22.065 18.6361 22.1521C18.9513 22.3014 19.0018 22.3106 19.5035 22.3106C20.0065 22.3106 20.0542 22.3018 20.354 22.1542C21.0102 21.8312 21.4209 21.2433 21.5111 20.4977C21.544 20.2269 21.5558 17.4494 21.5459 12.3517C21.532 5.16412 21.525 4.59602 21.4466 4.3265C21.1361 3.25829 20.3572 2.45442 19.285 2.09551C19.0322 2.01091 18.6922 2.00622 12.4201 2.0008C8.79063 1.99766 5.75581 2.00404 5.67605 2.01497ZM7.70651 6.15914C7.05473 6.448 6.89872 7.39825 7.42244 7.88934C7.73547 8.18284 7.51134 8.16997 12.2856 8.16881C16.4308 8.1678 16.6599 8.16326 16.8436 8.07822C17.5072 7.77099 17.6539 6.88711 17.1285 6.36228C16.8449 6.07903 17.0593 6.09093 12.2645 6.09296C8.70143 6.0945 7.8236 6.10722 7.70651 6.15914ZM7.70651 10.292C7.02848 10.6059 6.89432 11.4999 7.4468 12.0224C7.53648 12.1071 7.67107 12.1996 7.74591 12.2279C7.83825 12.2627 9.29621 12.2791 12.2797 12.2791C17.0572 12.2791 16.8451 12.291 17.1285 12.0079C17.6539 11.4831 17.5072 10.5992 16.8436 10.292C16.6599 10.2069 16.4318 10.2025 12.275 10.2025C8.1183 10.2025 7.89022 10.2069 7.70651 10.292ZM7.81572 14.3775C7.54335 14.4761 7.40585 14.5812 7.25923 14.803C7.1431 14.9786 7.12638 15.051 7.12638 15.3778C7.12638 15.7163 7.1403 15.7715 7.27354 15.9613C7.35451 16.0765 7.51768 16.2253 7.63612 16.2917L7.85154 16.4126H10.2204C12.8205 16.4126 12.7094 16.4244 13.0178 16.1159C13.2417 15.8921 13.3112 15.716 13.3112 15.3732C13.3112 15.0303 13.2417 14.8543 13.0178 14.6304C12.7111 14.3238 12.8092 14.3348 10.2929 14.3229C8.46136 14.3142 7.95998 14.3253 7.81572 14.3775Z" fill="#785846"/>
</svg>
