<svg width="25" height="25" viewBox="0 0 25 25" fill="none" xmlns="http://www.w3.org/2000/svg">
<path d="M2.91398 3.4555L2.914 3.45547C3.39168 2.47162 4.5149 1.66902 5.60819 1.51959L2.91398 3.4555ZM2.91398 3.4555C2.89953 3.48526 2.88244 3.51798 2.86387 3.55351C2.80139 3.67311 2.72228 3.82451 2.67154 4.00211C2.60386 4.239 2.57112 4.54239 2.55041 5.04287C2.51472 5.90512 2.51204 7.49067 2.50673 10.6316C2.50583 11.1663 2.50485 11.746 2.50362 12.3749C2.49847 15.0003 2.49879 16.9725 2.50472 18.3214C2.50769 18.9957 2.51206 19.5156 2.51788 19.884C2.52339 20.2329 2.53027 20.4843 2.54371 20.5859L2.54372 20.586M2.91398 3.4555L2.54372 20.586M2.54372 20.586C2.6972 21.7455 3.49514 22.6058 4.63871 22.8267M2.54372 20.586L4.63871 22.8267M18.4221 22.604L18.4221 22.604C18.2183 22.5075 17.8727 22.3173 17.6423 22.1759C16.77 21.641 15.9034 21.6608 15.1091 22.2059C14.3229 22.7454 13.2407 23.0765 12.275 23.0765C11.3094 23.0765 10.2272 22.7454 9.44104 22.2059C8.8363 21.791 8.15369 21.686 7.48251 21.8936L18.4221 22.604ZM18.4221 22.604C18.5786 22.6781 18.7234 22.7451 18.91 22.7792C19.0784 22.8099 19.2657 22.8106 19.5035 22.8106C19.7409 22.8106 19.9289 22.8101 20.0954 22.7795C20.283 22.745 20.4255 22.6763 20.5748 22.6028L20.5749 22.6028M18.4221 22.604L20.5749 22.6028M20.5749 22.6028C21.3874 22.2028 21.8976 21.4657 22.0075 20.5579L20.5749 22.6028ZM16.6362 7.62325C16.6295 7.62466 16.6133 7.62766 16.5819 7.63114C16.4945 7.6408 16.3392 7.64918 16.0402 7.65512C15.4481 7.66689 14.361 7.66831 12.2855 7.66881C12.0915 7.66886 11.9058 7.66893 11.7282 7.66899C9.70903 7.66969 8.72538 7.67003 8.20974 7.6404C7.95533 7.62577 7.86658 7.60531 7.8403 7.59705C7.83421 7.59173 7.82993 7.58752 7.82239 7.5801C7.8125 7.57038 7.797 7.55513 7.76444 7.5246L16.6362 7.62325ZM16.6362 7.62325C16.9703 7.46633 17.0629 7.00352 16.7751 6.71603L16.7751 6.71602C16.746 6.68692 16.7279 6.66901 16.7176 6.65856C16.7051 6.65544 16.6846 6.65106 16.6535 6.6463C16.5905 6.63665 16.4983 6.6275 16.3606 6.61988C15.8414 6.59113 14.8455 6.59164 12.8034 6.5927C12.6314 6.59279 12.4519 6.59288 12.2647 6.59296C10.4824 6.59373 9.37584 6.5973 8.70052 6.60711C8.36189 6.61202 8.13831 6.61843 7.99457 6.62635C7.93752 6.6295 7.8978 6.63264 7.87117 6.63539C7.74345 6.70797 7.64672 6.84876 7.61706 7.02941C7.58454 7.22745 7.64323 7.41093 7.76443 7.52459L16.6362 7.62325ZM7.91397 10.7469C7.57293 10.907 7.4843 11.3695 7.79022 11.659C7.81306 11.6806 7.84821 11.7089 7.88504 11.7342C7.88929 11.7371 7.89336 11.7399 7.89723 11.7424C7.9423 11.7452 8.00587 11.7481 8.09011 11.7508C8.28094 11.7571 8.56081 11.7624 8.93428 11.7666C9.68032 11.775 10.7884 11.7791 12.2797 11.7791C12.4642 11.7791 12.641 11.7792 12.8106 11.7792C14.8494 11.7794 15.8433 11.7795 16.3615 11.7505C16.4988 11.7428 16.5907 11.7336 16.6535 11.7239C16.6847 11.7192 16.7051 11.7148 16.7176 11.7116C16.7279 11.7012 16.7459 11.6833 16.7751 11.6542L7.91397 10.7469ZM7.91397 10.7469C7.92063 10.7455 7.93686 10.7426 7.96816 10.7391C8.05559 10.7294 8.21107 10.7211 8.51068 10.7152C9.10401 10.7036 10.1937 10.7025 12.275 10.7025C14.3564 10.7025 15.4461 10.7036 16.0394 10.7152C16.339 10.7211 16.4945 10.7294 16.5819 10.7391C16.6132 10.7426 16.6295 10.7455 16.6361 10.7469C16.9703 10.9039 17.0629 11.3667 16.7751 11.6542L7.91397 10.7469ZM4.63871 22.8267C4.97424 22.8915 5.29104 22.887 5.64378 22.7875M4.63871 22.8267L5.64378 22.7875M5.64378 22.7875C5.97963 22.6928 6.33081 22.5165 6.74438 22.2704M5.64378 22.7875L6.74438 22.2704M6.74438 22.2704C7.05686 22.0845 7.39303 21.9213 7.48247 21.8936L6.74438 22.2704ZM3.03938 20.5204L3.03936 20.5204L3.03938 20.5204ZM7.83484 6.64024C7.83471 6.6402 7.83669 6.63977 7.84115 6.63908C7.83719 6.63994 7.83496 6.64028 7.83484 6.64024ZM7.84048 11.7379C7.8319 11.7369 7.83385 11.7367 7.84291 11.7382C7.84189 11.7381 7.84108 11.738 7.84048 11.7379ZM22.0075 20.5578C22.0198 20.4566 22.0264 20.1974 22.0318 19.8349C22.0374 19.4541 22.0416 18.9202 22.0445 18.2369C22.0504 16.8699 22.0509 14.8999 22.0459 12.3507C22.039 8.75837 22.0338 6.8161 22.0204 5.73864C22.0138 5.20148 22.005 4.87033 21.9924 4.65421C21.9798 4.43796 21.962 4.30804 21.9268 4.18694C21.9268 4.18692 21.9268 4.18691 21.9268 4.1869L21.4466 4.3265L22.0075 20.5578ZM7.63864 15.1406C7.6426 15.1325 7.6518 15.1158 7.6763 15.0787L7.67634 15.0787C7.72915 14.9988 7.76428 14.964 7.79402 14.9412C7.82443 14.918 7.8725 14.8897 7.97183 14.8528C7.97965 14.8515 8.00288 14.8478 8.0489 14.8439C8.12883 14.837 8.24974 14.8313 8.4326 14.8272C8.79715 14.8192 9.37376 14.8185 10.2906 14.8229C10.3565 14.8232 10.4205 14.8235 10.4827 14.8238C11.6282 14.8292 12.1496 14.8316 12.4279 14.863C12.5177 14.8731 12.5552 14.8841 12.5665 14.8881C12.5686 14.8898 12.5721 14.8928 12.5773 14.8976C12.5915 14.9106 12.6036 14.9229 12.6243 14.9438C12.6349 14.9545 12.6478 14.9675 12.6643 14.984C12.7479 15.0676 12.7719 15.1116 12.7834 15.1409C12.7963 15.1735 12.8112 15.2327 12.8112 15.3732C12.8112 15.5136 12.7963 15.5729 12.7834 15.6055C12.7719 15.6347 12.7479 15.6788 12.6643 15.7624C12.6455 15.7812 12.6315 15.7953 12.6203 15.8067C12.6013 15.8259 12.59 15.8374 12.5762 15.8502C12.572 15.8541 12.569 15.8567 12.5669 15.8584C12.5546 15.8626 12.5158 15.8732 12.4257 15.8827C12.1424 15.9128 11.6111 15.9127 10.4497 15.9126C10.3758 15.9126 10.2994 15.9126 10.2204 15.9126H7.98222L7.88083 15.8557C7.88081 15.8557 7.88079 15.8557 7.88077 15.8557C7.82999 15.8271 7.72227 15.7302 7.68265 15.6738C7.65161 15.6296 7.6388 15.6083 7.6342 15.5999C7.63323 15.5944 7.63131 15.581 7.62971 15.5548C7.62732 15.5154 7.62638 15.4616 7.62638 15.3778C7.62638 15.2984 7.62745 15.245 7.62988 15.2053C7.63224 15.1665 7.63536 15.1509 7.63642 15.1463C7.63646 15.1461 7.6365 15.1459 7.63654 15.1457C7.63674 15.1448 7.63684 15.1443 7.63864 15.1406ZM12.5704 14.8897C12.5703 14.8897 12.5697 14.8894 12.5687 14.8889L12.5704 14.8897ZM12.5717 15.8566C12.5717 15.8566 12.5712 15.8569 12.5701 15.8573L12.5717 15.8566ZM7.63196 15.5954C7.63206 15.5955 7.63258 15.5965 7.6332 15.5981C7.63217 15.5961 7.63186 15.5953 7.63196 15.5954Z" stroke="#D7D7D7"/>
</svg>
