<svg width="26" height="31" viewBox="0 0 26 31" fill="none" xmlns="http://www.w3.org/2000/svg">
<g filter="url(#filter0_d_817_3961)">
<path fill-rule="evenodd" clip-rule="evenodd" d="M13 2C10.1599 2 7.85714 4.30272 7.85714 7.14286V8.42858H6.57142C5.9157 8.42858 5.36543 8.92103 5.29343 9.57289L4.00772 21.1443C3.96786 21.5069 4.08356 21.8707 4.32785 22.1433C4.57214 22.4159 4.92056 22.5715 5.2857 22.5715H20.7143C21.0794 22.5715 21.4279 22.4159 21.6721 22.1433C21.9164 21.8707 22.0321 21.5069 21.9923 21.1443L20.7066 9.57289C20.6346 8.92103 20.0843 8.42858 19.4286 8.42858H18.1429V7.14286C18.1429 4.30272 15.8401 2 13 2ZM15.5714 8.42858V7.14286C15.5714 5.72215 14.4207 4.57143 13 4.57143C11.5793 4.57143 10.4286 5.72215 10.4286 7.14286V8.42858H15.5714ZM7.85714 12.2857C7.85714 11.576 8.43314 11 9.14285 11C9.85257 11 10.4286 11.576 10.4286 12.2857C10.4286 12.9954 9.85257 13.5714 9.14285 13.5714C8.43314 13.5714 7.85714 12.9954 7.85714 12.2857ZM16.8572 11C16.1474 11 15.5714 11.576 15.5714 12.2857C15.5714 12.9954 16.1474 13.5714 16.8572 13.5714C17.5669 13.5714 18.1429 12.9954 18.1429 12.2857C18.1429 11.576 17.5669 11 16.8572 11Z" fill="#785846"/>
</g>
<defs>
<filter id="filter0_d_817_3961" x="-4" y="0" width="33" height="33" filterUnits="userSpaceOnUse" color-interpolation-filters="sRGB">
<feFlood flood-opacity="0" result="BackgroundImageFix"/>
<feColorMatrix in="SourceAlpha" type="matrix" values="0 0 0 0 0 0 0 0 0 0 0 0 0 0 0 0 0 0 127 0" result="hardAlpha"/>
<feOffset dy="4"/>
<feGaussianBlur stdDeviation="2"/>
<feComposite in2="hardAlpha" operator="out"/>
<feColorMatrix type="matrix" values="0 0 0 0 0 0 0 0 0 0 0 0 0 0 0 0 0 0 0.25 0"/>
<feBlend mode="normal" in2="BackgroundImageFix" result="effect1_dropShadow_817_3961"/>
<feBlend mode="normal" in="SourceGraphic" in2="effect1_dropShadow_817_3961" result="shape"/>
</filter>
</defs>
</svg>
