<svg width="25" height="25" viewBox="0 0 25 25" fill="none" xmlns="http://www.w3.org/2000/svg">
<path d="M3.51077 21.0891L3.51071 21.0897C3.45541 21.5928 3.61583 22.098 3.95551 22.477C4.29453 22.8553 4.7783 23.0715 5.2857 23.0715H20.7143C21.2217 23.0715 21.7055 22.8553 22.0445 22.477C22.3842 22.098 22.5446 21.5928 22.4893 21.0897L22.4892 21.0891L21.2035 9.51799C21.2035 9.51789 21.2035 9.51778 21.2035 9.51767C21.1034 8.61243 20.3389 7.92858 19.4286 7.92858H18.6429V7.14286C18.6429 4.02658 16.1163 1.5 13 1.5C9.88371 1.5 7.35714 4.02658 7.35714 7.14286V7.92858H6.57142C5.6611 7.92858 4.89664 8.61243 4.79649 9.51767C4.79649 9.51772 4.79648 9.51777 4.79647 9.51782C4.79647 9.51788 4.79646 9.51794 4.79646 9.51799L3.51077 21.0891ZM15.0714 7.14286V7.92858H10.9286V7.14286C10.9286 5.99829 11.8554 5.07143 13 5.07143C14.1446 5.07143 15.0714 5.99829 15.0714 7.14286ZM8.35714 12.2857C8.35714 11.8522 8.70928 11.5 9.14285 11.5C9.57643 11.5 9.92857 11.8522 9.92857 12.2857C9.92857 12.7193 9.57643 13.0714 9.14285 13.0714C8.70928 13.0714 8.35714 12.7193 8.35714 12.2857ZM16.0714 12.2857C16.0714 11.8522 16.4236 11.5 16.8572 11.5C17.2907 11.5 17.6429 11.8522 17.6429 12.2857C17.6429 12.7193 17.2907 13.0714 16.8572 13.0714C16.4236 13.0714 16.0714 12.7193 16.0714 12.2857Z" stroke="#D7D7D7"/>
</svg>
