<svg width="25" height="25" viewBox="0 0 25 25" fill="none" xmlns="http://www.w3.org/2000/svg">
<path d="M18.77 12.78C19.2819 12.78 19.7728 12.9833 20.1347 13.3453C20.4967 13.7072 20.7 14.1981 20.7 14.71V15.52C20.7 18.3782 17.9733 21.5 13.1 21.5C8.22673 21.5 5.5 18.3782 5.5 15.52V14.71C5.5 14.1981 5.70334 13.7072 6.06528 13.3453L5.71173 12.9917L6.06528 13.3453C6.42723 12.9833 6.91813 12.78 7.43 12.78H18.77ZM13.1 2.25C14.1489 2.25 15.1549 2.66669 15.8966 3.40839C16.6383 4.1501 17.055 5.15607 17.055 6.205C17.055 7.25393 16.6383 8.2599 15.8966 9.00161C15.1549 9.74331 14.1489 10.16 13.1 10.16C12.0511 10.16 11.0451 9.74331 10.3034 9.00161C9.56169 8.2599 9.145 7.25393 9.145 6.205C9.145 5.15607 9.56169 4.1501 10.3034 3.40839C11.0451 2.66669 12.0511 2.25 13.1 2.25Z" stroke="#D7D7D7"/>
</svg>
