<svg width="25" height="25" viewBox="0 0 25 25" fill="none" xmlns="http://www.w3.org/2000/svg">
<path d="M19 3H7.5C5.9 3 4.83335 4.33333 4.50002 5L3 11.5C2.99997 12.5 3.44338 14.8575 5.5 15C7.76804 15.1571 8.74052 14.2798 9.47437 12.5606C9.48211 12.5425 9.50934 12.546 9.5134 12.5653C10.0263 15 11.5132 15 13 15C15.5144 15 15.9872 14.0273 16.4794 12.5616C16.4856 12.543 16.5124 12.5426 16.5181 12.5614C16.8743 13.7297 18.0435 15.4913 20.5 15C22.9807 14.5039 23.1667 12.3333 23 11.5C22.8333 10.5 22.4 8 22 6C21.6 4 19.8333 3.16667 19 3Z" fill="#785846" stroke="white"/>
<path d="M4 19.5V14.5C7.174 15.6902 8.47875 14.5193 9.47556 12.5486C9.48394 12.532 9.50886 12.5352 9.5135 12.5532C10.0179 14.5089 11.0178 15 13 15C13.9914 15 15.9655 15 16.4867 12.5643C16.4908 12.5451 16.5183 12.5425 16.5263 12.5605C18.0347 15.9884 21.0058 14.9971 22 14.5V20C22 22 20 23 19 23H7.5C5 23 4.16667 20.8333 4 19.5Z" fill="#785846" stroke="white"/>
<path d="M10.5 3.5V6" stroke="white" stroke-linecap="round"/>
<path d="M15.5 3.5V6" stroke="white" stroke-linecap="round"/>
</svg>
