<svg width="11" height="11" viewBox="0 0 11 11" fill="none" xmlns="http://www.w3.org/2000/svg">
<path d="M0.530888 9.13932H1.17326C1.32191 9.13932 1.38562 9.11326 1.50241 9.01944L1.85811 8.75363L1.86873 8.76406C2.06515 8.9569 2.3306 8.99338 2.60135 8.87872L4.3639 8.16468C4.49662 8.11256 4.56033 8.06565 4.63996 7.98747L9.72056 3.03608C10.2196 2.55136 10.2143 1.98326 9.70994 1.4829L8.59508 0.377963C8.08543 -0.117176 7.50676 -0.1276 7.00772 0.357115L1.92181 5.30851C1.84218 5.38147 1.7944 5.43881 1.74131 5.56911L0.998069 7.29949C0.886583 7.55487 0.913127 7.81026 1.10956 8.00832L0.376931 8.76927C0.217664 8.93084 0.297297 9.13932 0.530888 9.13932ZM7.54392 0.940858C7.69788 0.800134 7.87838 0.78971 8.02172 0.930434L9.14189 2.04059C9.28523 2.18652 9.27461 2.36373 9.12597 2.50967L8.7278 2.89535L7.14575 1.33176L7.54392 0.940858ZM2.74469 5.62123L6.64672 1.81647L8.22876 3.38007L4.32674 7.18482L2.74469 5.62123ZM2.52172 8.07086C2.41554 8.10734 2.33591 8.10734 2.24035 8.01353L1.87934 7.65911C1.78378 7.5653 1.78378 7.48191 1.82625 7.38809L2.34122 6.20497L3.72683 7.57572L2.52172 8.07086ZM0.42471 11H10.57C10.8036 11 11 10.8072 11 10.5778C11 10.3485 10.8036 10.1609 10.57 10.1609H0.42471C0.19112 10.1609 0 10.3485 0 10.5778C0 10.8072 0.19112 11 0.42471 11Z" fill="#ACA8A8"/>
</svg>
